<svg width="16" height="23" viewBox="0 0 16 23" fill="none" xmlns="http://www.w3.org/2000/svg">
<path d="M14.6343 14.5686C14.4108 14.6613 14.1657 14.7126 13.9093 14.7126C12.8613 14.7126 12.0093 13.8605 12.0093 12.8125V9.75003C12.0093 8.70204 12.8613 7.85 13.9093 7.85C14.9573 7.85 15.8093 8.70204 15.8093 9.74999V16.0028C15.8093 19.3923 13.0515 22.1501 9.66115 22.1501H7.72651C6.81423 22.1501 5.90139 21.9347 5.08603 21.527L14.6343 14.5686ZM14.6343 14.5686V16.0028C14.6343 18.7445 12.4045 20.9751 9.66201 20.9751H7.72737C6.99647 20.9751 6.26518 20.802 5.61137 20.4747L5.61133 20.4747C4.28767 19.8124 3.33922 18.5475 3.07465 17.0907L3.07463 17.0906L2.70654 15.0735C2.7065 15.0733 2.70646 15.073 2.70641 15.0728C2.69204 14.9887 2.68421 14.9038 2.68421 14.8198C2.68421 14.1682 3.12645 13.6094 3.7602 13.4608L3.76032 13.4608L9.10513 12.2036C9.12966 12.4857 9.08185 12.7714 8.96167 13.039L8.96145 13.0394C8.77332 13.4623 8.42986 13.7818 7.99458 13.9404C7.99456 13.9404 7.99455 13.9404 7.99453 13.9404L6.10898 14.6263L14.6343 14.5686ZM5.41095 16.3779C5.2502 16.0564 5.2332 15.6811 5.36636 15.3463L5.3665 15.3459C5.50043 15.0116 5.77031 14.7495 6.10895 14.6263L5.41095 16.3779ZM5.41095 16.3779L5.94643 17.4497L5.94645 17.4498C6.09239 17.7417 6.44411 17.8559 6.73396 17.7133L6.73506 17.7128C7.02496 17.5672 7.14256 17.2149 6.99806 16.9247L6.99799 16.9246L6.46248 15.8518L6.46249 15.8518L6.46186 15.8506C6.44692 15.8213 6.45288 15.7958 6.45856 15.7817L6.45862 15.7817L6.46013 15.7777C6.46452 15.7659 6.47714 15.7422 6.51103 15.7298C6.51106 15.7298 6.51109 15.7298 6.51112 15.7297L8.39644 15.0439L8.39645 15.0439C9.13198 14.7762 9.71413 14.2347 10.0343 13.5196M5.41095 16.3779L10.0343 13.5196M10.0343 13.5196C10.0343 13.5196 10.0343 13.5196 10.0343 13.5196L9.8974 13.4583L10.0343 13.5196ZM10.0343 13.5196C10.3546 12.8043 10.3702 12.0088 10.0795 11.2816L10.0795 11.2816M10.0343 13.5196L10.0795 11.2816M10.0795 11.2816C9.97097 11.0102 9.68255 10.8646 9.4017 10.9275L9.4017 10.9275M10.0795 11.2816L9.4017 10.9275M9.4017 10.9275L9.40014 10.9279M9.4017 10.9275L9.40014 10.9279M9.40014 10.9279L3.49216 12.3183C2.32446 12.5923 1.50918 13.6214 1.50918 14.8207C1.50918 14.9748 1.52411 15.1276 1.54979 15.2797L1.54978 15.2797M9.40014 10.9279L1.54978 15.2797M1.54978 15.2797L1.55012 15.2816M1.54978 15.2797L1.55012 15.2816M1.55012 15.2816L1.91848 17.3028M1.55012 15.2816L1.91848 17.3028M1.91848 17.3028C1.91848 17.3028 1.91848 17.3028 1.91849 17.3029M1.91848 17.3028L1.91849 17.3029M1.91849 17.3029C2.24896 19.1211 3.43284 20.7009 5.08601 21.527L1.91849 17.3029ZM14.6343 12.8125C14.6343 13.2119 14.3094 13.5375 13.9093 13.5375C13.5093 13.5375 13.1843 13.2119 13.1843 12.8125V9.74999C13.1843 9.35059 13.5093 9.02499 13.9093 9.02499C14.3094 9.02499 14.6343 9.35063 14.6343 9.74999V12.8125Z" fill="none" stroke="#7C7474" stroke-width="0.3"/>
<path d="M13.1842 9.75006V8.00003C13.1842 6.95204 12.3322 6.1 11.2842 6.1C10.2362 6.1 9.38418 6.95204 9.38418 8.00003V12.3751C9.38418 13.4231 10.2362 14.2751 11.2842 14.2751C12.3312 14.2751 13.1842 13.4231 13.1842 12.3751V10.6251C13.1842 10.4513 13.1087 10.2952 12.9888 10.1876C13.1087 10.08 13.1842 9.92378 13.1842 9.75006ZM12.2047 10.1876C12.0847 10.2952 12.0092 10.4513 12.0092 10.6251V12.3751C12.0092 12.7745 11.6843 13.1001 11.2842 13.1001C10.8841 13.1001 10.5592 12.7744 10.5592 12.3751V8.00007C10.5592 7.60067 10.8841 7.27508 11.2842 7.27508C11.6843 7.27508 12.0092 7.60071 12.0092 8.00007V9.7501C12.0092 9.92382 12.0847 10.08 12.2047 10.1876Z" fill="none" stroke="#7C7474" stroke-width="0.3"/>
<path d="M6.63497 2.64677L6.63526 2.6468C6.73811 1.61244 7.57758 0.85 8.59316 0.85C9.67795 0.85 10.5588 1.73182 10.5588 2.8157V8.00012C10.5588 8.32446 10.2956 8.58763 9.97129 8.58763C9.64695 8.58763 9.38378 8.32446 9.38378 8.00012V2.8157C9.38378 2.37968 9.0292 2.02508 8.59316 2.02508C8.18609 2.02508 7.84997 2.32842 7.80751 2.73164L7.53645 9.99896L7.53645 9.99908C7.52159 10.3893 7.24436 10.7169 6.85799 10.7924L6.85619 10.7928L6.85619 10.7928C6.4699 10.8635 6.09028 10.6707 5.93003 10.3107L3.47483 4.80615L3.47418 4.80469L3.47418 4.80469C3.38912 4.60839 3.22504 4.46095 3.0227 4.39616L3.0224 4.39607C2.82228 4.33152 2.6012 4.35685 2.41944 4.46587C2.12596 4.64296 1.99263 4.99389 2.09583 5.32023L2.09584 5.32027L4.40672 12.6362L4.40674 12.6363C4.50419 12.9452 4.33292 13.2752 4.0239 13.373C4.02379 13.373 4.02368 13.373 4.02357 13.3731L3.97842 13.23C3.9347 13.2441 3.89007 13.2502 3.84631 13.2502C3.65993 13.2502 3.48844 13.1311 3.42893 12.9439L6.63497 2.64677ZM6.63497 2.64677L6.63463 2.65603L6.41548 8.51442L6.63497 2.64677ZM1.95281 5.36545L4.26368 12.6814L1.95281 5.36545ZM1.95281 5.36545C1.82857 4.97256 1.98956 4.54993 2.34217 4.33731L1.95281 5.36545Z" fill="none" stroke="#7C7474" stroke-width="0.3"/>
</svg>
