<svg width="24" height="24" viewBox="0 0 24 24" fill="none" xmlns="http://www.w3.org/2000/svg">
<path d="M2.00615 0.868683L0.868652 2.00618L6.42859 7.5645C6.41803 7.60756 6.40259 7.649 6.39365 7.69287L7.9374 9.15618V9.07331L11.6765 12.8124H11.5937L13.4624 14.6812C13.4957 14.6812 13.529 14.6926 13.5615 14.6974L13.8695 15.0062L15.0882 16.2249L18.4195 19.5554V19.557L19.8803 21.0187H19.882L21.9945 23.1312L23.1303 21.9937L19.765 18.6283C19.0581 16.3387 17.3665 14.4602 15.1687 13.5437C16.7124 12.4874 17.6874 10.7812 17.6874 8.83118C17.6874 5.66243 15.1687 3.14368 11.9999 3.14368C9.90121 3.14368 8.09015 4.27143 7.08834 5.9525L2.00615 0.868683ZM11.9999 4.68743C14.2749 4.68743 16.0624 6.47493 16.0624 8.74993C16.0624 10.4456 15.0679 11.8683 13.62 12.4842L8.26565 7.12981C8.88153 5.68193 10.3042 4.68743 11.9999 4.68743ZM6.4749 9.80618C6.7999 11.3499 7.6124 12.6499 8.9124 13.4624C7.42355 14.0647 6.14857 15.098 5.25101 16.4299C4.35346 17.7617 3.87427 19.3314 3.8749 20.9374H5.4999C5.4999 18.5812 6.71865 16.5499 8.5874 15.4124C9.15615 16.7124 10.4562 17.6874 11.9999 17.6874C12.6499 17.6874 13.2999 17.5249 13.7874 17.1999L12.5687 15.9812C12.4062 16.0624 12.1624 16.0624 11.9999 16.0624C11.1062 16.0624 10.3749 15.4937 10.1312 14.6812L11.1062 14.4374L6.4749 9.80618Z" fill="#7C7474"/>
</svg>
