<svg width="24" height="24" viewBox="0 0 24 24" fill="none" xmlns="http://www.w3.org/2000/svg">
<path d="M17.9442 14.277C17.5853 12.9758 16.8093 11.8283 15.7355 11.0106C14.6616 10.1928 13.3491 9.74998 11.9993 9.74998C10.6495 9.74998 9.33698 10.1928 8.26311 11.0106C7.18923 11.8283 6.4133 12.9758 6.05436 14.277L5.19899 17.3778C5.04541 17.9345 5.02249 18.5192 5.13203 19.0863C5.24157 19.6533 5.48061 20.1874 5.8305 20.6469C6.18039 21.1064 6.63168 21.4788 7.14918 21.7352C7.66668 21.9916 8.23641 22.125 8.81394 22.125H15.1846C15.7622 22.125 16.3319 21.9916 16.8494 21.7352C17.3669 21.4788 17.8182 21.1064 18.1681 20.6469C18.518 20.1874 18.757 19.6533 18.8665 19.0863C18.9761 18.5192 18.9532 17.9345 18.7996 17.3778L17.9442 14.277ZM16.9747 19.7379C16.7657 20.0147 16.4951 20.2389 16.1844 20.3928C15.8737 20.5468 15.5314 20.6263 15.1846 20.625H8.81394C8.46742 20.625 8.12557 20.545 7.81506 20.3911C7.50456 20.2373 7.23378 20.0138 7.02384 19.7381C6.8139 19.4624 6.67048 19.142 6.60476 18.8018C6.53904 18.4615 6.55279 18.1107 6.64494 17.7767L7.50032 14.6759C7.77196 13.6912 8.35916 12.8228 9.17184 12.204C9.98453 11.5851 10.9778 11.25 11.9993 11.25C13.0208 11.25 14.014 11.5851 14.8267 12.204C15.6394 12.8228 16.2266 13.6912 16.4983 14.6759L17.3536 17.7767C17.4471 18.1106 17.4615 18.4617 17.3958 18.8021C17.33 19.1426 17.1859 19.4631 16.9747 19.7381V19.7379Z" fill="#7C7474"/>
<path d="M6.84865 10.7957C6.97915 9.98012 6.80608 9.10698 6.36115 8.33654C5.91621 7.5661 5.24646 6.97965 4.47504 6.68485C3.64891 6.36933 2.80629 6.41959 2.10157 6.82627C0.700616 7.63515 0.331944 9.6287 1.2799 11.2703C1.72469 12.0407 2.39449 12.6273 3.16591 12.9219C3.50764 13.0551 3.87087 13.1246 4.23762 13.1268C4.69453 13.1285 5.14371 13.009 5.53938 12.7805C6.24368 12.3737 6.70868 11.6689 6.84865 10.7957ZM5.3674 10.5586C5.30036 10.9772 5.09505 11.3049 4.78929 11.4814C4.48352 11.658 4.09708 11.6718 3.70099 11.5207C3.25038 11.3486 2.85185 10.9933 2.57876 10.5203C2.05376 9.61088 2.17854 8.51401 2.85157 8.12532C3.02076 8.02931 3.21237 7.97985 3.4069 7.98198C3.58937 7.98386 3.76996 8.01908 3.93977 8.0859C4.39038 8.25807 4.78891 8.61334 5.06201 9.08635C5.3351 9.55937 5.44352 10.0824 5.3674 10.5586Z" fill="#7C7474"/>
<path d="M7.01152 7.68807C7.54411 8.11384 8.15232 8.33556 8.76736 8.33551C8.95159 8.33545 9.13528 8.31564 9.31529 8.2764C10.8961 7.93276 11.8545 6.14626 11.4518 4.294C11.2629 3.42465 10.8037 2.66195 10.1587 2.14628C9.46796 1.59409 8.6498 1.38508 7.8549 1.55795C6.27418 1.90155 5.31572 3.68805 5.71833 5.54031C5.90729 6.4097 6.36657 7.1724 7.01152 7.68807ZM8.17346 3.02373C8.24635 3.00802 8.32071 3.00016 8.39527 3.0003C8.67408 3.0003 8.96087 3.10937 9.22201 3.31815C9.59874 3.61933 9.8701 4.07912 9.98607 4.61289C10.2092 5.63922 9.7561 6.64576 8.99668 6.81086C8.65163 6.88586 8.27925 6.78142 7.94822 6.51672C7.57149 6.2155 7.30013 5.7557 7.18416 5.22198C6.96099 4.19537 7.41408 3.18883 8.17346 3.02373Z" fill="#7C7474"/>
<path d="M21.8987 6.82627C21.1943 6.41959 20.3512 6.36933 19.5252 6.68485C18.7538 6.97955 18.084 7.5661 17.6392 8.33654C17.1944 9.10698 17.0213 9.98031 17.1517 10.7957C17.2915 11.6689 17.7564 12.3737 18.461 12.7805C18.8566 13.009 19.3058 13.1285 19.7628 13.1268C20.1295 13.1246 20.4927 13.0551 20.8345 12.9219C21.6059 12.6273 22.2757 12.0407 22.7205 11.2703C23.6683 9.6287 23.2997 7.63515 21.8987 6.82627ZM21.4215 10.5203C21.1484 10.9933 20.7499 11.3486 20.2993 11.5207C19.9034 11.672 19.5168 11.6581 19.2111 11.4814C18.9053 11.3048 18.7001 10.9772 18.633 10.5586C18.5568 10.0824 18.6651 9.55956 18.9383 9.08677C19.2114 8.61399 19.6099 8.25849 20.0605 8.08632C20.2303 8.01945 20.4109 7.98416 20.5934 7.98221C20.7879 7.98008 20.9795 8.02954 21.1487 8.12555C21.8217 8.51391 21.9467 9.61065 21.4215 10.5203Z" fill="#7C7474"/>
<path d="M14.6855 8.27702C14.8655 8.31625 15.0492 8.33607 15.2334 8.33613C15.8484 8.33613 16.4568 8.11446 16.9892 7.68869C17.6342 7.17307 18.0935 6.41032 18.2824 5.54097C18.685 3.68871 17.7266 1.90221 16.1459 1.55861C15.351 1.38583 14.5328 1.59471 13.8421 2.14694C13.1971 2.66257 12.7378 3.42532 12.5489 4.29461C12.1463 6.14688 13.1047 7.93338 14.6855 8.27702ZM14.0147 4.61327C14.1307 4.0795 14.402 3.61952 14.7788 3.31854C15.0399 3.10975 15.3267 3.00068 15.6055 3.00068C15.6801 3.00054 15.7544 3.0084 15.8273 3.02411C16.5867 3.18921 17.0398 4.19599 16.8167 5.22208C16.7006 5.75585 16.4293 6.21583 16.0526 6.51686C15.7216 6.78152 15.3495 6.88596 15.0042 6.811C14.2447 6.64614 13.7916 5.63946 14.0147 4.61327Z" fill="#7C7474"/>
</svg>
