<svg width="24" height="24" viewBox="0 0 24 24" fill="none" xmlns="http://www.w3.org/2000/svg">
<path d="M8.26941 19.9044C8.13938 19.8429 7.99366 19.8226 7.85178 19.8462L3.75003 20.5299L4.98649 17.8242C5.09209 17.5931 5.06529 17.3231 4.91634 17.1173C3.84674 15.6393 3.26208 13.8646 3.26208 11.9998C3.26208 7.17355 7.17442 3.26109 12.0005 3.26109C16.8266 3.26109 20.7389 7.17355 20.7389 11.9998C20.7389 16.8261 16.8266 20.7385 12.0005 20.7385C10.6918 20.7385 9.42538 20.4511 8.26941 19.9044ZM1.91486 21.1508C1.67987 21.665 2.11487 22.233 2.67254 22.14L7.87015 21.2737C9.15842 21.8484 10.5588 22.1496 12.0005 22.1496C17.6059 22.1496 22.15 17.6054 22.15 11.9998C22.15 6.39423 17.6059 1.85 12.0005 1.85C6.3951 1.85 1.85103 6.39423 1.85103 11.9998C1.85103 14.0222 2.44461 15.9569 3.53629 17.6027L1.91486 21.1508Z" fill="#7C7474" stroke="#7C7474" stroke-width="0.3"/>
</svg>
