<svg width="20" height="23" viewBox="0 0 20 23" fill="none" xmlns="http://www.w3.org/2000/svg">
<path d="M4.81631 15.0663L2.65763 17.225H7.6875C8.081 17.225 8.4 17.544 8.4 17.9375C8.4 18.331 8.081 18.65 7.6875 18.65H2.65763L4.81631 20.8087C5.09456 21.0869 5.09456 21.5381 4.81631 21.8163C4.53806 22.0946 4.08694 22.0946 3.80869 21.8163L0.433687 18.4413C0.155437 18.1631 0.155437 17.7119 0.433687 17.4337L3.80869 14.0587C4.08694 13.7804 4.53806 13.7804 4.81631 14.0587C5.09456 14.3369 5.09456 14.7881 4.81631 15.0663ZM10.5 11.9C9.68331 11.9 8.90585 11.7304 8.20124 11.4243L4.59267 12.9676C4.23086 13.1223 3.81213 12.9545 3.6574 12.5927C3.50266 12.2309 3.67053 11.8121 4.03233 11.6574L6.73302 10.5024C5.5037 9.44354 4.725 7.87517 4.725 6.125C4.725 2.93556 7.31056 0.35 10.5 0.35C13.6894 0.35 16.275 2.93556 16.275 6.125C16.275 7.88582 15.4868 9.46262 14.2445 10.5217L17.9134 12.1893C18.971 12.6701 19.65 13.7246 19.65 14.8863V15.6875C19.65 17.3236 18.3236 18.65 16.6875 18.65H11.0625C10.669 18.65 10.35 18.331 10.35 17.9375C10.35 17.544 10.669 17.225 11.0625 17.225H16.6875C17.5366 17.225 18.225 16.5366 18.225 15.6875V14.8863C18.225 14.2834 17.8726 13.7361 17.3237 13.4866L12.7926 11.427C12.0896 11.7314 11.3143 11.9 10.5 11.9ZM6.15 6.125C6.15 8.52744 8.09756 10.475 10.5 10.475C12.9024 10.475 14.85 8.52744 14.85 6.125C14.85 3.72256 12.9024 1.775 10.5 1.775C8.09756 1.775 6.15 3.72256 6.15 6.125Z" fill="#7C7474" stroke="#7C7474" stroke-width="0.3"/>
</svg>
