<svg width="24" height="22" viewBox="0 0 24 22" fill="none" xmlns="http://www.w3.org/2000/svg">
<path class="kiwi" d="M3.06099 12.7699L7.51894 10.5794C7.63936 10.526 7.74635 10.4386 7.82181 10.3205C8.02763 9.99845 7.918 9.58082 7.58778 9.38853C6.32952 8.65588 5.55 7.35567 5.55 5.92969C5.55 3.69943 7.44614 1.87969 9.8 1.87969C11.2287 1.87969 12.5341 2.55559 13.3198 3.65909C13.5384 3.96616 13.971 4.04248 14.2877 3.83702C14.6083 3.62897 14.6957 3.20632 14.4739 2.89486C13.4279 1.42572 11.6916 0.529687 9.8 0.529687C6.68624 0.529687 4.15 2.94085 4.15 5.92969C4.15 7.44495 4.80858 8.85062 5.91583 9.85192L2.42524 11.567C1.46058 12.041 0.85 12.9925 0.85 14.0356V14.8547C0.85 16.3938 2.15505 17.6297 3.75008 17.6297C4.13002 17.6297 4.45008 17.334 4.45008 16.9547C4.45008 16.5754 4.13002 16.2797 3.75008 16.2797C2.91492 16.2797 2.25 15.6352 2.25 14.8547V14.0356C2.25 13.5056 2.56037 13.0158 3.06099 12.7699ZM7.52693 17.0107L11.9583 15.088C12.6459 15.3723 13.4039 15.5297 14.2 15.5297C14.9961 15.5297 15.7541 15.3723 16.4417 15.088L20.8731 17.0107C21.4101 17.2437 21.75 17.7521 21.75 18.3069V19.0547C21.75 19.8352 21.0851 20.4797 20.25 20.4797H8.15C7.31492 20.4797 6.65 19.8352 6.65 19.0547V18.3069C6.65 17.7521 6.98989 17.2437 7.52693 17.0107ZM8.55 10.1297C8.55 11.7717 9.31675 13.2409 10.5234 14.2302L6.95234 15.7796C5.9186 16.2281 5.25 17.2148 5.25 18.3069V19.0547C5.25 20.5938 6.55503 21.8297 8.15 21.8297H20.25C21.845 21.8297 23.15 20.5938 23.15 19.0547V18.3069C23.15 17.2148 22.4814 16.2281 21.4477 15.7796L17.8766 14.2302C19.0833 13.2409 19.85 11.7717 19.85 10.1297C19.85 7.14085 17.3138 4.72969 14.2 4.72969C11.0862 4.72969 8.55 7.14085 8.55 10.1297ZM18.45 10.1297C18.45 12.3599 16.5539 14.1797 14.2 14.1797C11.8461 14.1797 9.95 12.3599 9.95 10.1297C9.95 7.89943 11.8461 6.07969 14.2 6.07969C16.5539 6.07969 18.45 7.89943 18.45 10.1297Z" fill="#7C7474" stroke="#7C7474" stroke-width="0.3"/>
</svg>
