<svg width="24" height="22" viewBox="0 0 24 22" fill="none" xmlns="http://www.w3.org/2000/svg">
<path d="M3.06099 12.77L7.51894 10.5796C7.63936 10.5262 7.74635 10.4388 7.82181 10.3207C8.02763 9.99861 7.918 9.58097 7.58778 9.38868C6.32952 8.65603 5.55 7.35582 5.55 5.92984C5.55 3.69959 7.44614 1.87984 9.8 1.87984C11.2287 1.87984 12.5341 2.55575 13.3198 3.65924C13.5384 3.96631 13.971 4.04263 14.2877 3.83717C14.6083 3.62913 14.6957 3.20647 14.4739 2.89501C13.4279 1.42587 11.6916 0.52984 9.8 0.52984C6.68624 0.52984 4.15 2.941 4.15 5.92984C4.15 7.4451 4.80858 8.85077 5.91583 9.85207L2.42524 11.5672C1.46058 12.0412 0.85 12.9927 0.85 14.0357V14.8548C0.85 16.3939 2.15505 17.6298 3.75008 17.6298C4.13002 17.6298 4.45008 17.3341 4.45008 16.9548C4.45008 16.5755 4.13002 16.2798 3.75008 16.2798C2.91492 16.2798 2.25 15.6353 2.25 14.8548V14.0357C2.25 13.5057 2.56037 13.016 3.06099 12.77ZM7.52693 17.0108L11.9583 15.0881C12.6459 15.3724 13.4039 15.5298 14.2 15.5298C14.9961 15.5298 15.7541 15.3724 16.4417 15.0881L20.8731 17.0108C21.4101 17.2439 21.75 17.7522 21.75 18.3071V19.0548C21.75 19.8353 21.0851 20.4798 20.25 20.4798H8.15C7.31492 20.4798 6.65 19.8353 6.65 19.0548V18.3071C6.65 17.7522 6.98989 17.2439 7.52693 17.0108ZM8.55 10.1298C8.55 11.7719 9.31675 13.2411 10.5234 14.2303L6.95234 15.7797C5.9186 16.2283 5.25 17.2149 5.25 18.3071V19.0548C5.25 20.5939 6.55503 21.8298 8.15 21.8298H20.25C21.845 21.8298 23.15 20.5939 23.15 19.0548V18.3071C23.15 17.2149 22.4814 16.2283 21.4477 15.7797L17.8766 14.2303C19.0833 13.2411 19.85 11.7719 19.85 10.1298C19.85 7.141 17.3138 4.72984 14.2 4.72984C11.0862 4.72984 8.55 7.141 8.55 10.1298ZM18.45 10.1298C18.45 12.3601 16.5539 14.1798 14.2 14.1798C11.8461 14.1798 9.95 12.3601 9.95 10.1298C9.95 7.89959 11.8461 6.07984 14.2 6.07984C16.5539 6.07984 18.45 7.89959 18.45 10.1298Z" fill="white" stroke="white" stroke-width="0.3"/>
</svg>
