<svg width="27" height="20" viewBox="0 0 27 20" fill="none" xmlns="http://www.w3.org/2000/svg">
<path d="M8.8498 8.67999C8.8498 10.2387 9.47517 11.639 10.4675 12.585L7.55145 14.058C6.6922 14.4918 6.1498 15.4371 6.1498 16.4678V17.18C6.1498 18.6282 7.2097 19.83 8.5498 19.83H18.4498C19.7899 19.83 20.8498 18.6282 20.8498 17.18V16.4678C20.8498 15.4371 20.3074 14.4918 19.4482 14.058L16.5321 12.585C17.5244 11.639 18.1498 10.2387 18.1498 8.67999C18.1498 5.85094 16.0827 3.52999 13.4998 3.52999C10.9169 3.52999 8.8498 5.85094 8.8498 8.67999ZM8.05848 15.2362L11.666 13.4143C12.2286 13.6817 12.8482 13.83 13.4998 13.83C14.1514 13.83 14.771 13.6817 15.3337 13.4143L18.9411 15.2362C19.3669 15.4514 19.6498 15.93 19.6498 16.4678V17.18C19.6498 17.9408 19.0978 18.53 18.4498 18.53H8.5498C7.90179 18.53 7.3498 17.9408 7.3498 17.18V16.4678C7.3498 15.93 7.63274 15.4514 8.05848 15.2362ZM16.9498 8.67999C16.9498 10.8216 15.3906 12.53 13.4998 12.53C11.609 12.53 10.0498 10.8216 10.0498 8.67999C10.0498 6.53836 11.609 4.82999 13.4998 4.82999C15.3906 4.82999 16.9498 6.53836 16.9498 8.67999Z" fill="white" stroke="white" stroke-width="0.3"/>
<path d="M20.6923 9.857C20.7541 9.96955 20.8436 10.0564 20.9484 10.1107L24.5952 12.1964C24.9934 12.4242 25.2518 12.8863 25.2518 13.3999V14.18C25.2518 14.9408 24.7001 15.53 24.0518 15.53C23.7059 15.53 23.4518 15.8363 23.4518 16.18C23.4518 16.5237 23.7059 16.83 24.0518 16.83C25.3918 16.83 26.4518 15.6283 26.4518 14.18V13.3999C26.4518 12.4153 25.9567 11.5048 25.1561 11.0469L22.3037 9.41549C23.2143 8.45844 23.7518 7.11887 23.7518 5.67999C23.7518 2.85098 21.6844 0.529993 19.1018 0.529993C17.5353 0.529993 16.1063 1.39386 15.2497 2.79427C15.0722 3.08441 15.1356 3.48228 15.4065 3.68683C15.6878 3.89925 16.0674 3.81146 16.25 3.51293C16.8921 2.46321 17.9517 1.82999 19.1018 1.82999C20.9927 1.82999 22.5518 3.53844 22.5518 5.67999C22.5518 7.04588 21.9102 8.28154 20.8894 8.97342C20.6083 9.16393 20.5285 9.55865 20.6923 9.857Z" fill="white" stroke="white" stroke-width="0.3"/>
<path d="M6.50939 9.857C6.4476 9.96955 6.35807 10.0564 6.25324 10.1107L2.60644 12.1964C2.20821 12.4242 1.94983 12.8863 1.94983 13.3999V14.18C1.94983 14.9408 2.50157 15.53 3.14989 15.53C3.49574 15.53 3.74989 15.8363 3.74989 16.18C3.74989 16.5237 3.49574 16.83 3.14989 16.83C1.80989 16.83 0.749832 15.6283 0.749832 14.18V13.3999C0.749832 12.4153 1.24495 11.5048 2.04559 11.0469L4.89798 9.41549C3.98739 8.45844 3.44983 7.11887 3.44983 5.67999C3.44983 2.85098 5.51723 0.529993 8.09983 0.529993C9.66633 0.529993 11.0953 1.39386 11.9519 2.79427C12.1294 3.08441 12.066 3.48228 11.7952 3.68683C11.5139 3.89925 11.1343 3.81146 10.9517 3.51293C10.3096 2.46321 9.24993 1.82999 8.09983 1.82999C6.20892 1.82999 4.64983 3.53844 4.64983 5.67999C4.64983 7.04588 5.29143 8.28154 6.31223 8.97342C6.59332 9.16393 6.67318 9.55865 6.50939 9.857Z" fill="white" stroke="white" stroke-width="0.3"/>
</svg>
