<svg width="21" height="21" viewBox="0 0 21 21" fill="none" xmlns="http://www.w3.org/2000/svg">
<path d="M19.6549 17.8125V9.39349C19.9569 9.60838 20.3781 9.55598 20.6174 9.26544C20.8676 8.96169 20.8241 8.51265 20.5203 8.2625L10.9578 0.3875C10.6947 0.170833 10.3151 0.170833 10.052 0.3875L0.489457 8.2625C0.1857 8.51265 0.142246 8.96169 0.392398 9.26544C0.631668 9.55598 1.05289 9.60838 1.3549 9.39348V17.8125C1.3549 19.4486 2.68125 20.775 4.3174 20.775H7.6924C8.0859 20.775 8.4049 20.456 8.4049 20.0625V13.3125C8.4049 13.0847 8.58958 12.9 8.8174 12.9H12.1924C12.4202 12.9 12.6049 13.0847 12.6049 13.3125V20.0625C12.6049 20.456 12.9239 20.775 13.3174 20.775H16.6924C18.3285 20.775 19.6549 19.4486 19.6549 17.8125ZM14.0299 19.35V13.3125C14.0299 12.2977 13.2072 11.475 12.1924 11.475H8.8174C7.80258 11.475 6.9799 12.2977 6.9799 13.3125V19.35H4.3174C3.46826 19.35 2.7799 18.6616 2.7799 17.8125V8.25C2.7799 8.24086 2.77973 8.23176 2.77938 8.2227L10.5049 1.86051L18.2304 8.2227C18.2301 8.23176 18.2299 8.24086 18.2299 8.25V17.8125C18.2299 18.6616 17.5415 19.35 16.6924 19.35H14.0299Z" fill="white" stroke="white" stroke-width="0.3"/>
</svg>
