<svg width="20" height="23" viewBox="0 0 20 23" fill="none" xmlns="http://www.w3.org/2000/svg">
<path d="M14.975 14.5625V17.225H12.3125C11.919 17.225 11.6 17.544 11.6 17.9375C11.6 18.331 11.919 18.65 12.3125 18.65H14.975V21.3125C14.975 21.706 15.294 22.025 15.6875 22.025C16.081 22.025 16.4 21.706 16.4 21.3125V18.65H19.0625C19.456 18.65 19.775 18.331 19.775 17.9375C19.775 17.544 19.456 17.225 19.0625 17.225H16.4V14.5625C16.4 14.169 16.081 13.85 15.6875 13.85C15.294 13.85 14.975 14.169 14.975 14.5625ZM9.5 11.9C10.3167 11.9 11.0941 11.7304 11.7988 11.4243L15.4073 12.9676C15.7691 13.1223 16.1879 12.9545 16.3426 12.5927C16.4973 12.2309 16.3295 11.8121 15.9677 11.6574L13.267 10.5024C14.4963 9.44354 15.275 7.87517 15.275 6.125C15.275 2.93556 12.6894 0.35 9.5 0.35C6.31056 0.35 3.725 2.93556 3.725 6.125C3.725 7.88582 4.5132 9.46262 5.75551 10.5217L2.08661 12.1893C1.02901 12.6701 0.35 13.7246 0.35 14.8863V15.6875C0.35 17.3236 1.67636 18.65 3.3125 18.65H8.9375C9.331 18.65 9.65 18.331 9.65 17.9375C9.65 17.544 9.331 17.225 8.9375 17.225H3.3125C2.46336 17.225 1.775 16.5366 1.775 15.6875V14.8863C1.775 14.2834 2.1274 13.7361 2.67628 13.4866L7.20742 11.427C7.9104 11.7314 8.6857 11.9 9.5 11.9ZM13.85 6.125C13.85 8.52744 11.9024 10.475 9.5 10.475C7.09756 10.475 5.15 8.52744 5.15 6.125C5.15 3.72256 7.09756 1.775 9.5 1.775C11.9024 1.775 13.85 3.72256 13.85 6.125Z" fill="#7C7474" stroke="#7C7474" stroke-width="0.3"/>
</svg>
