<svg width="20" height="21" viewBox="0 0 20 21" fill="none" xmlns="http://www.w3.org/2000/svg">
<path d="M0.9375 6.15H1.35V14.85H0.9375C0.543997 14.85 0.225 15.169 0.225 15.5625C0.225 15.956 0.543997 16.275 0.9375 16.275H1.35V17.8125C1.35 19.4486 2.67636 20.775 4.3125 20.775H16.6875C18.3236 20.775 19.65 19.4486 19.65 17.8125V3.1875C19.65 1.55136 18.3236 0.225 16.6875 0.225H4.3125C2.67636 0.225 1.35 1.55136 1.35 3.1875V4.725H0.9375C0.543997 4.725 0.225 5.044 0.225 5.4375C0.225 5.831 0.543997 6.15 0.9375 6.15ZM3.1875 14.85H2.775V6.15H3.1875C3.581 6.15 3.9 5.831 3.9 5.4375C3.9 5.044 3.581 4.725 3.1875 4.725H2.775V3.1875C2.775 2.33836 3.46336 1.65 4.3125 1.65H16.6875C17.5366 1.65 18.225 2.33836 18.225 3.1875V17.8125C18.225 18.6616 17.5366 19.35 16.6875 19.35H4.3125C3.46336 19.35 2.775 18.6616 2.775 17.8125V16.275H3.1875C3.581 16.275 3.9 15.956 3.9 15.5625C3.9 15.169 3.581 14.85 3.1875 14.85ZM14.4375 3.6H6.5625C5.54768 3.6 4.725 4.42268 4.725 5.4375V7.6875C4.725 8.70232 5.54768 9.525 6.5625 9.525H14.4375C15.4523 9.525 16.275 8.70232 16.275 7.6875V5.4375C16.275 4.42268 15.4523 3.6 14.4375 3.6ZM6.15 5.4375C6.15 5.20968 6.33468 5.025 6.5625 5.025H14.4375C14.6653 5.025 14.85 5.20968 14.85 5.4375V7.6875C14.85 7.91532 14.6653 8.1 14.4375 8.1H6.5625C6.33468 8.1 6.15 7.91532 6.15 7.6875V5.4375Z" fill="white" stroke="white" stroke-width="0.3"/>
</svg>
