<svg width="25" height="21" viewBox="0 0 25 21" fill="none" xmlns="http://www.w3.org/2000/svg">
<path d="M3.67304 2.93474L5.04547 11.1693C5.04658 11.1767 5.0478 11.184 5.04914 11.1913L5.29634 12.6745C5.53442 14.103 6.77035 15.15 8.21854 15.15H20.9375C21.331 15.15 21.65 14.831 21.65 14.4375C21.65 14.044 21.331 13.725 20.9375 13.725H8.21854C7.46695 13.725 6.82552 13.1816 6.70196 12.4403L6.59108 11.775H20.9375C21.2556 11.775 21.5352 11.5641 21.6226 11.2582L23.8726 3.38324C24.0026 2.92808 23.6609 2.475 23.1875 2.475H5.0321C4.70795 1.16313 3.52732 0.225 2.15646 0.225H1.8125C1.419 0.225 1.1 0.543997 1.1 0.9375C1.1 1.331 1.419 1.65 1.8125 1.65H2.15646C2.90805 1.65 3.54948 2.19337 3.67304 2.93474ZM6.35358 10.35L5.27858 3.9H22.2429L20.4001 10.35H6.35358ZM5.6 18.375C5.6 19.7005 6.67452 20.775 8 20.775C9.32548 20.775 10.4 19.7005 10.4 18.375C10.4 17.0495 9.32548 15.975 8 15.975C6.67452 15.975 5.6 17.0495 5.6 18.375ZM8.975 18.375C8.975 18.9135 8.53848 19.35 8 19.35C7.46152 19.35 7.025 18.9135 7.025 18.375C7.025 17.8365 7.46152 17.4 8 17.4C8.53848 17.4 8.975 17.8365 8.975 18.375ZM15.725 18.375C15.725 19.7005 16.7995 20.775 18.125 20.775C19.4505 20.775 20.525 19.7005 20.525 18.375C20.525 17.0495 19.4505 15.975 18.125 15.975C16.7995 15.975 15.725 17.0495 15.725 18.375ZM19.1 18.375C19.1 18.9135 18.6635 19.35 18.125 19.35C17.5865 19.35 17.15 18.9135 17.15 18.375C17.15 17.8365 17.5865 17.4 18.125 17.4C18.6635 17.4 19.1 17.8365 19.1 18.375Z" fill="white" stroke="white" stroke-width="0.3"/>
</svg>
