<svg width="24" height="24" viewBox="0 0 24 24" fill="none" xmlns="http://www.w3.org/2000/svg">
<path d="M1.0104 12.4101C1.0104 18.7061 6.11435 23.8101 12.4104 23.8101C18.7064 23.8101 23.8104 18.7061 23.8104 12.4101C23.8104 6.11402 18.7064 1.01006 12.4104 1.01006C6.11435 1.01006 1.0104 6.11402 1.0104 12.4101ZM22.3854 12.4101C22.3854 17.9191 17.9194 22.3851 12.4104 22.3851C6.90136 22.3851 2.4354 17.9191 2.4354 12.4101C2.4354 6.90102 6.90136 2.43506 12.4104 2.43506C17.9194 2.43506 22.3854 6.90102 22.3854 12.4101ZM8.07951 7.69613C7.87082 8.03762 7.7604 8.43007 7.7604 8.83029V15.9898C7.7604 17.1911 8.73418 18.1648 9.9354 18.1648C10.3356 18.1648 10.7281 18.0544 11.0696 17.8457L17.2415 14.074C18.1605 13.5124 18.4502 12.3122 17.8886 11.3932C17.7273 11.1293 17.5055 10.9075 17.2415 10.7462L11.0696 6.9744C10.0446 6.34802 8.70589 6.67115 8.07951 7.69613ZM9.1854 15.9898V8.83029C9.1854 8.69228 9.22348 8.55695 9.29544 8.4392C9.51143 8.08576 9.97305 7.97433 10.3265 8.19032L16.4985 11.9621C16.5695 12.0055 16.6293 12.0652 16.6727 12.1363C16.8239 12.3837 16.7459 12.7068 16.4985 12.858L10.3265 16.6298C10.2087 16.7018 10.0734 16.7398 9.9354 16.7398C9.52119 16.7398 9.1854 16.4041 9.1854 15.9898Z" fill="white" stroke="white" stroke-width="0.3"/>
</svg>
