<svg width="25" height="25" viewBox="0 0 25 25" fill="none" xmlns="http://www.w3.org/2000/svg">
<path d="M8.29507 21.4094C8.15224 21.3418 7.99218 21.3195 7.83634 21.3455L3.18707 22.1204L4.59274 19.0444C4.70874 18.7906 4.67931 18.494 4.5157 18.2679C3.31009 16.602 2.65109 14.6016 2.65109 12.4998C2.65109 7.05989 7.06086 2.64998 12.5006 2.64998C17.9403 2.64998 22.3501 7.05989 22.3501 12.4998C22.3501 17.9397 17.9403 22.3496 12.5006 22.3496C11.0255 22.3496 9.59805 22.0256 8.29507 21.4094ZM1.17127 22.8025C0.913157 23.3673 1.39097 23.9911 2.00353 23.889L7.85641 22.9135C9.30472 23.5604 10.8794 23.8996 12.5006 23.8996C18.7963 23.8996 23.9 18.7957 23.9 12.4998C23.9 6.20387 18.7963 1.1 12.5006 1.1C6.20485 1.1 1.10116 6.20387 1.10116 12.4998C1.10116 14.7748 1.76992 16.951 2.99971 18.8014L1.17127 22.8025Z" fill="white" stroke="white" stroke-width="0.3"/>
</svg>
