<svg width="27" height="27" viewBox="0 0 27 27" fill="none" xmlns="http://www.w3.org/2000/svg">
<path d="M9.63966 16.8484H7.87433L5.56335 12.5645H5.53125C5.54195 12.7993 5.55265 13.0614 5.56335 13.3508C5.5794 13.6348 5.59277 13.8996 5.60347 14.1454V16.8484H4.38379V11H6.1411L8.44405 15.2348H8.46812C8.45742 15 8.44673 14.7488 8.43603 14.4812C8.42533 14.2082 8.4173 13.9515 8.41195 13.7112V11H9.63966V16.8484Z" fill="#7C7474"/>
<path d="M14.3358 16.8484H10.9897V11H14.3358V12.1304H12.3538V13.2525H14.1913V14.3829H12.3538V15.7017H14.3358V16.8484Z" fill="#7C7474"/>
<path d="M22.7346 11L21.2983 16.8484H19.7095L19.0435 14.0225C19.0274 13.9679 19.006 13.8805 18.9793 13.7604C18.9579 13.6403 18.9338 13.5092 18.9071 13.3672C18.8803 13.2252 18.8536 13.0887 18.8268 12.9577C18.8054 12.8212 18.7921 12.7092 18.7867 12.6218C18.776 12.7092 18.7573 12.8212 18.7306 12.9577C18.7092 13.0887 18.6851 13.2252 18.6583 13.3672C18.6316 13.5092 18.6048 13.6403 18.5781 13.7604C18.5513 13.8805 18.5326 13.9679 18.5219 14.0225L17.8479 16.8484H16.2671L14.8228 11H16.1548L16.8368 14.0717C16.8636 14.1863 16.8957 14.3392 16.9331 14.5304C16.9706 14.7215 17.0053 14.9181 17.0374 15.1201C17.0749 15.3167 17.1016 15.4805 17.1177 15.6116C17.1391 15.4368 17.1712 15.2321 17.214 14.9973C17.2568 14.757 17.2996 14.5276 17.3424 14.3092C17.3905 14.0853 17.4306 13.9106 17.4627 13.785L18.1448 11H19.4206L20.1027 13.785C20.1241 13.8778 20.1508 14.0007 20.1829 14.1536C20.215 14.3065 20.2471 14.473 20.2792 14.6532C20.3113 14.828 20.3407 15 20.3675 15.1693C20.3996 15.3385 20.4237 15.486 20.4397 15.6116C20.4558 15.4805 20.4798 15.3167 20.5119 15.1201C20.5494 14.9181 20.5868 14.7242 20.6243 14.5385C20.6617 14.3474 20.6938 14.1945 20.7206 14.0798L21.4026 11H22.7346Z" fill="#7C7474"/>
<mask id="path-2-inside-1" fill="white">
<path d="M2 7C2 4.23858 4.23858 2 7 2H20C22.7614 2 25 4.23858 25 7V20C25 22.7614 22.7614 25 20 25H7C4.23858 25 2 22.7614 2 20V7Z"/>
</mask>
<path d="M7 3.7H20V0.3H7V3.7ZM23.3 7V20H26.7V7H23.3ZM20 23.3H7V26.7H20V23.3ZM3.7 20V7H0.3V20H3.7ZM7 23.3C5.17746 23.3 3.7 21.8225 3.7 20H0.3C0.3 23.7003 3.29969 26.7 7 26.7V23.3ZM23.3 20C23.3 21.8225 21.8225 23.3 20 23.3V26.7C23.7003 26.7 26.7 23.7003 26.7 20H23.3ZM20 3.7C21.8225 3.7 23.3 5.17746 23.3 7H26.7C26.7 3.29969 23.7003 0.3 20 0.3V3.7ZM7 0.3C3.29969 0.3 0.3 3.29969 0.3 7H3.7C3.7 5.17746 5.17746 3.7 7 3.7V0.3Z" fill="#7C7474" mask="url(#path-2-inside-1)"/>
</svg>
