<svg width="5" height="25" viewBox="0 0 5 25" fill="none" xmlns="http://www.w3.org/2000/svg">
<path fill-rule="evenodd" clip-rule="evenodd" d="M2.5 5C3.88071 5 5 3.88071 5 2.5C5 1.11929 3.88071 0 2.5 0C1.11929 0 0 1.11929 0 2.5C0 3.88071 1.11929 5 2.5 5Z" fill="#ADADAD"/>
<path fill-rule="evenodd" clip-rule="evenodd" d="M2.5 15C3.88071 15 5 13.8807 5 12.5C5 11.1193 3.88071 10 2.5 10C1.11929 10 0 11.1193 0 12.5C0 13.8807 1.11929 15 2.5 15Z" fill="#ADADAD"/>
<path fill-rule="evenodd" clip-rule="evenodd" d="M2.5 25C3.88071 25 5 23.8807 5 22.5C5 21.1193 3.88071 20 2.5 20C1.11929 20 0 21.1193 0 22.5C0 23.8807 1.11929 25 2.5 25Z" fill="#ADADAD"/>
</svg>
