<svg width="25" height="21" viewBox="0 0 25 21" fill="none" xmlns="http://www.w3.org/2000/svg">
<path d="M3.65 9.525H5.75C6.17371 9.525 6.56418 9.38143 6.875 9.14045C7.18582 9.38143 7.57629 9.525 8 9.525H11.375C11.7987 9.525 12.1892 9.38143 12.5 9.14045C12.8108 9.38143 13.2013 9.525 13.625 9.525H17C17.4237 9.525 17.8142 9.38143 18.125 9.14045C18.4358 9.38143 18.8263 9.525 19.25 9.525H21.35V17.8125C21.35 18.6616 20.6616 19.35 19.8125 19.35H12.65V13.3125C12.65 12.2977 11.8273 11.475 10.8125 11.475H7.4375C6.42268 11.475 5.6 12.2977 5.6 13.3125V19.35H5.1875C4.33836 19.35 3.65 18.6616 3.65 17.8125V9.525ZM22.775 9.38175C23.436 9.10346 23.9 8.44967 23.9 7.6875V6.77915C23.9 6.54539 23.8554 6.31377 23.7686 6.09672L21.599 0.672884C21.4908 0.402377 21.2288 0.225 20.9375 0.225H4.0625C3.77116 0.225 3.50916 0.402377 3.40096 0.672884L1.23142 6.09672C1.14461 6.31377 1.1 6.54539 1.1 6.77915V7.6875C1.1 8.44967 1.56404 9.10346 2.225 9.38175V17.8125C2.225 19.4486 3.55136 20.775 5.1875 20.775H19.8125C21.4486 20.775 22.775 19.4486 22.775 17.8125V9.38175ZM11.225 13.3125V19.35H7.025V13.3125C7.025 13.0847 7.20968 12.9 7.4375 12.9H10.8125C11.0403 12.9 11.225 13.0847 11.225 13.3125ZM16.025 15.5625V13.3125C16.025 13.0847 16.2097 12.9 16.4375 12.9H17.5625C17.7903 12.9 17.975 13.0847 17.975 13.3125V15.5625C17.975 15.7903 17.7903 15.975 17.5625 15.975H16.4375C16.2097 15.975 16.025 15.7903 16.025 15.5625ZM16.4375 11.475C15.4227 11.475 14.6 12.2977 14.6 13.3125V15.5625C14.6 16.5773 15.4227 17.4 16.4375 17.4H17.5625C18.5773 17.4 19.4 16.5773 19.4 15.5625V13.3125C19.4 12.2977 18.5773 11.475 17.5625 11.475H16.4375ZM2.5545 6.62596L4.54489 1.65H20.4551L22.4455 6.62596C22.465 6.67468 22.475 6.72668 22.475 6.77915V7.6875C22.475 7.91532 22.2903 8.1 22.0625 8.1H19.25C19.0222 8.1 18.8375 7.91532 18.8375 7.6875V6.5625C18.8375 6.169 18.5185 5.85 18.125 5.85C17.7315 5.85 17.4125 6.169 17.4125 6.5625V7.6875C17.4125 7.91532 17.2278 8.1 17 8.1H13.625C13.3972 8.1 13.2125 7.91532 13.2125 7.6875V6.5625C13.2125 6.169 12.8935 5.85 12.5 5.85C12.1065 5.85 11.7875 6.169 11.7875 6.5625V7.6875C11.7875 7.91532 11.6028 8.1 11.375 8.1H8C7.77218 8.1 7.5875 7.91532 7.5875 7.6875V6.5625C7.5875 6.169 7.2685 5.85 6.875 5.85C6.4815 5.85 6.1625 6.169 6.1625 6.5625V7.6875C6.1625 7.91532 5.97782 8.1 5.75 8.1H2.9375C2.70968 8.1 2.525 7.91532 2.525 7.6875V6.77915C2.525 6.72668 2.53501 6.67468 2.5545 6.62596Z" fill="white" stroke="white" stroke-width="0.3"/>
</svg>
