<svg width="19" height="23" viewBox="0 0 19 23" fill="none" xmlns="http://www.w3.org/2000/svg">
<path d="M9.82755 0.205898L9.8276 0.205915C10.1471 0.319555 10.3686 0.592819 10.3686 0.909188V6.43376C10.3686 7.16927 11.0718 7.79271 11.9695 7.79271C12.8671 7.79271 13.5704 7.16926 13.5704 6.43376C13.5704 6.08229 13.8416 5.78946 14.2093 5.70153C14.2093 5.70153 14.2093 5.70153 14.2093 5.70153L14.2326 5.79879C14.5648 5.71931 14.9183 5.83964 15.0966 6.09284L9.82755 0.205898ZM9.82755 0.205898C9.50877 0.0927135 9.14009 0.153949 8.89144 0.367225L8.89135 0.3673M9.82755 0.205898L8.89135 0.3673M8.89135 0.3673C8.80286 0.443382 6.74776 2.21626 4.66582 4.89508C3.43791 6.47502 2.45663 8.04383 1.75045 9.55814L1.84108 9.6004L8.89135 0.3673ZM9.4999 21.3316C5.42529 21.3316 2.13701 18.4908 2.13701 15.0302C2.13701 11.5915 4.27679 8.10256 6.08602 5.77048C6.99198 4.60272 7.90465 3.6047 8.6314 2.86286V6.43376C8.6314 8.03423 10.1437 9.31107 11.9693 9.31107C13.0345 9.31107 13.9882 8.87881 14.6012 8.20232C16.1067 10.6664 16.863 12.9575 16.863 15.0302C16.863 18.4908 13.5749 21.3316 9.4999 21.3316Z" fill="#669774" stroke="#669774"/>
</svg>
