<svg width="24" height="24" viewBox="0 0 24 24" fill="none" xmlns="http://www.w3.org/2000/svg">
<path d="M2.49328 20.9375V11.3125C2.49328 10.9893 2.75916 10.725 3.08993 10.725H5.8765C6.20726 10.725 6.47314 10.9893 6.47314 11.3125V20.9375C6.47314 21.2607 6.20726 21.525 5.8765 21.525H3.08993C2.75916 21.525 2.49328 21.2607 2.49328 20.9375ZM8.40941 7.3046L7.23729 9.61807C6.86354 9.32501 6.39054 9.15 5.8765 9.15H3.08993C1.88171 9.15 0.9 10.1169 0.9 11.3125V20.9375C0.9 22.1331 1.88171 23.1 3.08993 23.1H5.8765C6.61183 23.1 7.26287 22.742 7.66004 22.1926C8.29491 22.7567 9.13521 23.1 10.0564 23.1H18.6808C20.5206 23.1 22.0629 21.724 22.2462 19.9146L23.0822 11.6646C23.0941 11.5476 23.1 11.4301 23.1 11.3125C23.1 9.35755 21.4945 7.775 19.5168 7.775H14.957L14.5055 3.31923C14.3663 1.94479 13.1948 0.9 11.798 0.9C10.3974 0.9 9.25971 2.02085 9.25971 3.40625V3.75C9.25971 4.98388 8.96861 6.20087 8.40941 7.3046ZM8.06642 19.5625V11.4987L9.83401 8.00991C10.5041 6.68731 10.853 5.22884 10.853 3.75V3.40625C10.853 2.89318 11.2748 2.475 11.798 2.475C12.3785 2.475 12.8627 2.90891 12.9202 3.47621L13.4435 8.64099C13.4844 9.04456 13.828 9.35 14.2362 9.35H19.5168C20.617 9.35 21.5067 10.2299 21.5067 11.3125C21.5067 11.3777 21.5034 11.4428 21.4969 11.5076L20.6609 19.7576C20.5593 20.7599 19.7043 21.525 18.6808 21.525H10.0564C8.95609 21.525 8.06642 20.6451 8.06642 19.5625Z" fill="#7C7474" stroke="#7C7474" stroke-width="0.2"/>
</svg>
