<svg width="18" height="19" viewBox="0 0 18 19" fill="none" xmlns="http://www.w3.org/2000/svg">
<path d="M17.614 16.8951L13.33 12.4395C14.4315 11.1301 15.035 9.48262 15.035 7.76749C15.035 3.76026 11.7747 0.5 7.76749 0.5C3.76026 0.5 0.5 3.76026 0.5 7.76749C0.5 11.7747 3.76026 15.035 7.76749 15.035C9.27186 15.035 10.7055 14.5812 11.9311 13.7199L16.2477 18.2093C16.4281 18.3967 16.6708 18.5 16.9309 18.5C17.177 18.5 17.4105 18.4062 17.5878 18.2355C17.9644 17.8731 17.9764 17.2721 17.614 16.8951ZM7.76749 2.39587C10.7295 2.39587 13.1391 4.80552 13.1391 7.76749C13.1391 10.7295 10.7295 13.1391 7.76749 13.1391C4.80552 13.1391 2.39587 10.7295 2.39587 7.76749C2.39587 4.80552 4.80552 2.39587 7.76749 2.39587Z" fill="#7C7474"/>
</svg>
