<svg width="24" height="22" viewBox="0 0 24 22" fill="none" xmlns="http://www.w3.org/2000/svg">
<path d="M5.84034 17.121C5.84034 17.3428 5.85851 17.5643 5.89468 17.7831L6.17839 19.4999C4.88151 19.0902 3.92157 18.4393 3.27574 17.5429C2.5919 16.5938 2.24886 15.3536 2.24886 13.7963C2.24886 9.89964 5.38074 6.74293 9.24144 6.74293H12.538C12.9255 6.74293 13.2375 6.42649 13.2375 6.03883V2.46284C13.2375 2.34863 13.3289 2.25821 13.4391 2.25821C13.4866 2.25821 13.5327 2.27524 13.5692 2.30652L21.3001 8.93375C21.8386 9.39534 21.9043 10.2105 21.4463 10.754C21.4016 10.807 21.3527 10.8563 21.3001 10.9014L13.5692 17.5286C13.4846 17.6011 13.3581 17.591 13.2859 17.5053C13.2547 17.4684 13.2375 17.4212 13.2375 17.3723V13.7963C13.2375 13.4087 12.9255 13.0922 12.538 13.0922H9.83635C7.62822 13.0922 5.84034 14.8972 5.84034 17.121ZM7.2392 17.121C7.2392 15.6725 8.40318 14.5004 9.83635 14.5004H11.8386V17.3723C11.8386 17.7547 11.9734 18.1247 12.2192 18.4164C12.7916 19.0955 13.8023 19.1784 14.4761 18.6008L22.2071 11.9736C22.3171 11.8792 22.4194 11.776 22.513 11.665C23.4699 10.5296 23.3333 8.82702 22.2071 7.86159L14.4761 1.23436C14.1868 0.986337 13.8192 0.85 13.4391 0.85C12.554 0.85 11.8386 1.5733 11.8386 2.46284V5.33472H9.24144C4.60578 5.33472 0.85 9.12431 0.85 13.7963C0.85 15.8044 1.36145 17.443 2.38328 18.6807C3.40498 19.9182 4.92355 20.7387 6.90719 21.1362C7.38886 21.2327 7.81361 20.8138 7.73367 20.3301L7.27457 17.552C7.25103 17.4095 7.2392 17.2654 7.2392 17.121Z" fill="#7C7474" stroke="#7C7474" stroke-width="0.3"/>
</svg>
