<svg width="27" height="27" viewBox="0 0 27 27" fill="none" xmlns="http://www.w3.org/2000/svg">
<path d="M13.8276 2.2059L13.8276 2.20592C14.1471 2.31955 14.3686 2.59282 14.3686 2.90919V8.43376C14.3686 9.16927 15.0718 9.79271 15.9695 9.79271C16.8671 9.79271 17.5704 9.16926 17.5704 8.43376C17.5704 8.08229 17.8416 7.78946 18.2093 7.70153C18.2093 7.70153 18.2093 7.70153 18.2093 7.70153L18.2326 7.79879C18.5648 7.71931 18.9183 7.83964 19.0966 8.09284L13.8276 2.2059ZM13.8276 2.2059C13.5088 2.09271 13.1401 2.15395 12.8914 2.36722L12.8914 2.3673M13.8276 2.2059L12.8914 2.3673M12.8914 2.3673C12.8029 2.44338 10.7478 4.21626 8.66582 6.89508C7.43791 8.47502 6.45663 10.0438 5.75045 11.5581L5.84108 11.6004L12.8914 2.3673ZM13.4999 23.3316C9.42529 23.3316 6.13701 20.4908 6.13701 17.0302C6.13701 13.5915 8.27679 10.1026 10.086 7.77048C10.992 6.60272 11.9047 5.6047 12.6314 4.86286V8.43376C12.6314 10.0342 14.1437 11.3111 15.9693 11.3111C17.0345 11.3111 17.9882 10.8788 18.6012 10.2023C20.1067 12.6664 20.863 14.9575 20.863 17.0302C20.863 20.4908 17.5749 23.3316 13.4999 23.3316Z" fill="#669774" stroke="#669774" stroke-width="0.2"/>
</svg>
